<svg width="119" height="16" viewBox="0 0 119 16" fill="none" xmlns="http://www.w3.org/2000/svg">
<path d="M10.5664 7.85156C10.5664 9.00391 10.4753 10.0358 10.293 10.9473C10.1172 11.8522 9.83724 12.6204 9.45312 13.252C9.06901 13.8835 8.56771 14.3652 7.94922 14.6973C7.33073 15.0293 6.58203 15.1953 5.70312 15.1953C4.60286 15.1953 3.69466 14.9056 2.97852 14.3262C2.26237 13.7402 1.73177 12.9004 1.38672 11.8066C1.04167 10.7064 0.869141 9.38802 0.869141 7.85156C0.869141 6.3151 1.02539 5 1.33789 3.90625C1.6569 2.80599 2.17122 1.96289 2.88086 1.37695C3.59049 0.791016 4.53125 0.498047 5.70312 0.498047C6.8099 0.498047 7.72135 0.791016 8.4375 1.37695C9.16016 1.95638 9.69401 2.79622 10.0391 3.89648C10.3906 4.99023 10.5664 6.30859 10.5664 7.85156ZM3.18359 7.85156C3.18359 9.05599 3.26172 10.0618 3.41797 10.8691C3.58073 11.6764 3.84766 12.2819 4.21875 12.6855C4.58984 13.0827 5.08464 13.2812 5.70312 13.2812C6.32161 13.2812 6.81641 13.0827 7.1875 12.6855C7.55859 12.2884 7.82552 11.6862 7.98828 10.8789C8.15755 10.0716 8.24219 9.0625 8.24219 7.85156C8.24219 6.65365 8.16081 5.65104 7.99805 4.84375C7.83529 4.03646 7.56836 3.43099 7.19727 3.02734C6.82617 2.61719 6.32812 2.41211 5.70312 2.41211C5.07812 2.41211 4.58008 2.61719 4.20898 3.02734C3.8444 3.43099 3.58073 4.03646 3.41797 4.84375C3.26172 5.65104 3.18359 6.65365 3.18359 7.85156ZM21.9922 6.80664C21.9922 7.65299 21.9303 8.48307 21.8066 9.29688C21.6895 10.1107 21.4811 10.8724 21.1816 11.582C20.8887 12.2917 20.4818 12.9199 19.9609 13.4668C19.4466 14.0072 18.7956 14.4303 18.0078 14.7363C17.2201 15.0423 16.2695 15.1953 15.1562 15.1953C14.8763 15.1953 14.5508 15.179 14.1797 15.1465C13.8151 15.1204 13.5156 15.0814 13.2812 15.0293V13.1152C13.5286 13.1868 13.8053 13.2454 14.1113 13.291C14.4238 13.3301 14.7331 13.3496 15.0391 13.3496C16.2435 13.3496 17.181 13.125 17.8516 12.6758C18.5286 12.2266 19.0072 11.6081 19.2871 10.8203C19.5736 10.0326 19.7363 9.13737 19.7754 8.13477H19.6582C19.4694 8.44727 19.2318 8.73372 18.9453 8.99414C18.6589 9.24805 18.304 9.45312 17.8809 9.60938C17.4577 9.75911 16.9434 9.83398 16.3379 9.83398C15.5176 9.83398 14.8014 9.66146 14.1895 9.31641C13.584 8.97135 13.112 8.47005 12.7734 7.8125C12.4414 7.14844 12.2754 6.35091 12.2754 5.41992C12.2754 4.41081 12.4674 3.54167 12.8516 2.8125C13.2357 2.08333 13.7793 1.52344 14.4824 1.13281C15.1855 0.735677 16.0124 0.537109 16.9629 0.537109C17.679 0.537109 18.3398 0.667318 18.9453 0.927734C19.5573 1.18164 20.0911 1.57227 20.5469 2.09961C21.0026 2.62044 21.3574 3.27474 21.6113 4.0625C21.8652 4.84375 21.9922 5.75846 21.9922 6.80664ZM16.9922 2.43164C16.2695 2.43164 15.6803 2.67578 15.2246 3.16406C14.7689 3.64583 14.541 4.38802 14.541 5.39062C14.541 6.20443 14.7363 6.84896 15.127 7.32422C15.5176 7.79948 16.1165 8.03711 16.9238 8.03711C17.4837 8.03711 17.9655 7.92318 18.3691 7.69531C18.7793 7.46094 19.0951 7.16471 19.3164 6.80664C19.5443 6.44857 19.6582 6.08398 19.6582 5.71289C19.6582 5.32878 19.6029 4.94466 19.4922 4.56055C19.388 4.17643 19.2253 3.82487 19.0039 3.50586C18.7826 3.18685 18.5026 2.92969 18.1641 2.73438C17.832 2.53255 17.4414 2.43164 16.9922 2.43164ZM24.1992 13.7891C24.1992 13.2552 24.3359 12.8809 24.6094 12.666C24.8893 12.4447 25.2279 12.334 25.625 12.334C26.0221 12.334 26.3607 12.4447 26.6406 12.666C26.9271 12.8809 27.0703 13.2552 27.0703 13.7891C27.0703 14.3099 26.9271 14.6875 26.6406 14.9219C26.3607 15.1497 26.0221 15.2637 25.625 15.2637C25.2279 15.2637 24.8893 15.1497 24.6094 14.9219C24.3359 14.6875 24.1992 14.3099 24.1992 13.7891ZM24.1992 5.42969C24.1992 4.88932 24.3359 4.50846 24.6094 4.28711C24.8893 4.06576 25.2279 3.95508 25.625 3.95508C26.0221 3.95508 26.3607 4.06576 26.6406 4.28711C26.9271 4.50846 27.0703 4.88932 27.0703 5.42969C27.0703 5.94401 26.9271 6.31836 26.6406 6.55273C26.3607 6.7806 26.0221 6.89453 25.625 6.89453C25.2279 6.89453 24.8893 6.7806 24.6094 6.55273C24.3359 6.31836 24.1992 5.94401 24.1992 5.42969ZM38.9453 7.85156C38.9453 9.00391 38.8542 10.0358 38.6719 10.9473C38.4961 11.8522 38.2161 12.6204 37.832 13.252C37.4479 13.8835 36.9466 14.3652 36.3281 14.6973C35.7096 15.0293 34.9609 15.1953 34.082 15.1953C32.9818 15.1953 32.0736 14.9056 31.3574 14.3262C30.6413 13.7402 30.1107 12.9004 29.7656 11.8066C29.4206 10.7064 29.248 9.38802 29.248 7.85156C29.248 6.3151 29.4043 5 29.7168 3.90625C30.0358 2.80599 30.5501 1.96289 31.2598 1.37695C31.9694 0.791016 32.9102 0.498047 34.082 0.498047C35.1888 0.498047 36.1003 0.791016 36.8164 1.37695C37.5391 1.95638 38.0729 2.79622 38.418 3.89648C38.7695 4.99023 38.9453 6.30859 38.9453 7.85156ZM31.5625 7.85156C31.5625 9.05599 31.6406 10.0618 31.7969 10.8691C31.9596 11.6764 32.2266 12.2819 32.5977 12.6855C32.9688 13.0827 33.4635 13.2812 34.082 13.2812C34.7005 13.2812 35.1953 13.0827 35.5664 12.6855C35.9375 12.2884 36.2044 11.6862 36.3672 10.8789C36.5365 10.0716 36.6211 9.0625 36.6211 7.85156C36.6211 6.65365 36.5397 5.65104 36.377 4.84375C36.2142 4.03646 35.9473 3.43099 35.5762 3.02734C35.2051 2.61719 34.707 2.41211 34.082 2.41211C33.457 2.41211 32.959 2.61719 32.5879 3.02734C32.2233 3.43099 31.9596 4.03646 31.7969 4.84375C31.6406 5.65104 31.5625 6.65365 31.5625 7.85156ZM50.3906 7.85156C50.3906 9.00391 50.2995 10.0358 50.1172 10.9473C49.9414 11.8522 49.6615 12.6204 49.2773 13.252C48.8932 13.8835 48.3919 14.3652 47.7734 14.6973C47.1549 15.0293 46.4062 15.1953 45.5273 15.1953C44.4271 15.1953 43.5189 14.9056 42.8027 14.3262C42.0866 13.7402 41.556 12.9004 41.2109 11.8066C40.8659 10.7064 40.6934 9.38802 40.6934 7.85156C40.6934 6.3151 40.8496 5 41.1621 3.90625C41.4811 2.80599 41.9954 1.96289 42.7051 1.37695C43.4147 0.791016 44.3555 0.498047 45.5273 0.498047C46.6341 0.498047 47.5456 0.791016 48.2617 1.37695C48.9844 1.95638 49.5182 2.79622 49.8633 3.89648C50.2148 4.99023 50.3906 6.30859 50.3906 7.85156ZM43.0078 7.85156C43.0078 9.05599 43.0859 10.0618 43.2422 10.8691C43.4049 11.6764 43.6719 12.2819 44.043 12.6855C44.4141 13.0827 44.9089 13.2812 45.5273 13.2812C46.1458 13.2812 46.6406 13.0827 47.0117 12.6855C47.3828 12.2884 47.6497 11.6862 47.8125 10.8789C47.9818 10.0716 48.0664 9.0625 48.0664 7.85156C48.0664 6.65365 47.985 5.65104 47.8223 4.84375C47.6595 4.03646 47.3926 3.43099 47.0215 3.02734C46.6504 2.61719 46.1523 2.41211 45.5273 2.41211C44.9023 2.41211 44.4043 2.61719 44.0332 3.02734C43.6686 3.43099 43.4049 4.03646 43.2422 4.84375C43.0859 5.65104 43.0078 6.65365 43.0078 7.85156ZM57.168 10.6055V8.66211H62.207V10.6055H57.168ZM75.752 15H73.4473V5.81055C73.4473 5.50456 73.4505 5.19857 73.457 4.89258C73.4635 4.58659 73.4701 4.28711 73.4766 3.99414C73.4896 3.70117 73.5059 3.42122 73.5254 3.1543C73.3887 3.30404 73.2194 3.4668 73.0176 3.64258C72.8223 3.81836 72.6139 4.00065 72.3926 4.18945L70.752 5.49805L69.5996 4.04297L73.8379 0.722656H75.752V15ZM85.2637 0.527344C86.0905 0.527344 86.8359 0.657552 87.5 0.917969C88.1641 1.17188 88.6914 1.55273 89.082 2.06055C89.4727 2.56836 89.668 3.19661 89.668 3.94531C89.668 4.52474 89.5475 5.0293 89.3066 5.45898C89.0723 5.88867 88.7533 6.26628 88.3496 6.5918C87.946 6.91081 87.4935 7.19401 86.9922 7.44141C87.5521 7.71484 88.0664 8.0306 88.5352 8.38867C89.0104 8.74023 89.3913 9.15365 89.6777 9.62891C89.9707 10.1042 90.1172 10.6608 90.1172 11.2988C90.1172 12.0996 89.9121 12.793 89.502 13.3789C89.0983 13.9583 88.5352 14.4076 87.8125 14.7266C87.0898 15.0391 86.2467 15.1953 85.2832 15.1953C84.248 15.1953 83.3659 15.0423 82.6367 14.7363C81.9076 14.4303 81.3542 13.9941 80.9766 13.4277C80.599 12.8548 80.4102 12.1712 80.4102 11.377C80.4102 10.7194 80.5404 10.1497 80.8008 9.66797C81.0612 9.1862 81.4095 8.76953 81.8457 8.41797C82.2884 8.06641 82.7734 7.77018 83.3008 7.5293C82.8516 7.26237 82.4414 6.96289 82.0703 6.63086C81.6992 6.29232 81.403 5.90495 81.1816 5.46875C80.9668 5.02604 80.8594 4.51497 80.8594 3.93555C80.8594 3.19336 81.0579 2.57161 81.4551 2.07031C81.8522 1.5625 82.3828 1.17839 83.0469 0.917969C83.7174 0.657552 84.4564 0.527344 85.2637 0.527344ZM82.5977 11.2891C82.5977 11.9141 82.819 12.4284 83.2617 12.832C83.7044 13.2357 84.3652 13.4375 85.2441 13.4375C86.1165 13.4375 86.7806 13.2389 87.2363 12.8418C87.6921 12.4447 87.9199 11.9206 87.9199 11.2695C87.9199 10.8529 87.8027 10.485 87.5684 10.166C87.3405 9.84701 87.0312 9.5638 86.6406 9.31641C86.2565 9.0625 85.8301 8.82812 85.3613 8.61328L85.0488 8.48633C84.541 8.70117 84.1048 8.94531 83.7402 9.21875C83.3757 9.48568 83.0924 9.78841 82.8906 10.127C82.6953 10.4655 82.5977 10.8529 82.5977 11.2891ZM85.2441 2.29492C84.6126 2.29492 84.0918 2.45117 83.6816 2.76367C83.278 3.06966 83.0762 3.51237 83.0762 4.0918C83.0762 4.50195 83.1738 4.85352 83.3691 5.14648C83.571 5.43945 83.8411 5.69336 84.1797 5.9082C84.5182 6.11654 84.8926 6.31185 85.3027 6.49414C85.6999 6.31836 86.0579 6.1263 86.377 5.91797C86.7025 5.70312 86.9596 5.44922 87.1484 5.15625C87.3438 4.85677 87.4414 4.4987 87.4414 4.08203C87.4414 3.50911 87.2363 3.06966 86.8262 2.76367C86.4225 2.45117 85.8952 2.29492 85.2441 2.29492ZM92.3047 13.7891C92.3047 13.2552 92.4414 12.8809 92.7148 12.666C92.9948 12.4447 93.3333 12.334 93.7305 12.334C94.1276 12.334 94.4661 12.4447 94.7461 12.666C95.0326 12.8809 95.1758 13.2552 95.1758 13.7891C95.1758 14.3099 95.0326 14.6875 94.7461 14.9219C94.4661 15.1497 94.1276 15.2637 93.7305 15.2637C93.3333 15.2637 92.9948 15.1497 92.7148 14.9219C92.4414 14.6875 92.3047 14.3099 92.3047 13.7891ZM92.3047 5.42969C92.3047 4.88932 92.4414 4.50846 92.7148 4.28711C92.9948 4.06576 93.3333 3.95508 93.7305 3.95508C94.1276 3.95508 94.4661 4.06576 94.7461 4.28711C95.0326 4.50846 95.1758 4.88932 95.1758 5.42969C95.1758 5.94401 95.0326 6.31836 94.7461 6.55273C94.4661 6.7806 94.1276 6.89453 93.7305 6.89453C93.3333 6.89453 92.9948 6.7806 92.7148 6.55273C92.4414 6.31836 92.3047 5.94401 92.3047 5.42969ZM107.051 7.85156C107.051 9.00391 106.96 10.0358 106.777 10.9473C106.602 11.8522 106.322 12.6204 105.938 13.252C105.553 13.8835 105.052 14.3652 104.434 14.6973C103.815 15.0293 103.066 15.1953 102.188 15.1953C101.087 15.1953 100.179 14.9056 99.4629 14.3262C98.7467 13.7402 98.2161 12.9004 97.8711 11.8066C97.526 10.7064 97.3535 9.38802 97.3535 7.85156C97.3535 6.3151 97.5098 5 97.8223 3.90625C98.1413 2.80599 98.6556 1.96289 99.3652 1.37695C100.075 0.791016 101.016 0.498047 102.188 0.498047C103.294 0.498047 104.206 0.791016 104.922 1.37695C105.645 1.95638 106.178 2.79622 106.523 3.89648C106.875 4.99023 107.051 6.30859 107.051 7.85156ZM99.668 7.85156C99.668 9.05599 99.7461 10.0618 99.9023 10.8691C100.065 11.6764 100.332 12.2819 100.703 12.6855C101.074 13.0827 101.569 13.2812 102.188 13.2812C102.806 13.2812 103.301 13.0827 103.672 12.6855C104.043 12.2884 104.31 11.6862 104.473 10.8789C104.642 10.0716 104.727 9.0625 104.727 7.85156C104.727 6.65365 104.645 5.65104 104.482 4.84375C104.32 4.03646 104.053 3.43099 103.682 3.02734C103.311 2.61719 102.812 2.41211 102.188 2.41211C101.562 2.41211 101.064 2.61719 100.693 3.02734C100.329 3.43099 100.065 4.03646 99.9023 4.84375C99.7461 5.65104 99.668 6.65365 99.668 7.85156ZM118.496 7.85156C118.496 9.00391 118.405 10.0358 118.223 10.9473C118.047 11.8522 117.767 12.6204 117.383 13.252C116.999 13.8835 116.497 14.3652 115.879 14.6973C115.26 15.0293 114.512 15.1953 113.633 15.1953C112.533 15.1953 111.624 14.9056 110.908 14.3262C110.192 13.7402 109.661 12.9004 109.316 11.8066C108.971 10.7064 108.799 9.38802 108.799 7.85156C108.799 6.3151 108.955 5 109.268 3.90625C109.587 2.80599 110.101 1.96289 110.811 1.37695C111.52 0.791016 112.461 0.498047 113.633 0.498047C114.74 0.498047 115.651 0.791016 116.367 1.37695C117.09 1.95638 117.624 2.79622 117.969 3.89648C118.32 4.99023 118.496 6.30859 118.496 7.85156ZM111.113 7.85156C111.113 9.05599 111.191 10.0618 111.348 10.8691C111.51 11.6764 111.777 12.2819 112.148 12.6855C112.52 13.0827 113.014 13.2812 113.633 13.2812C114.251 13.2812 114.746 13.0827 115.117 12.6855C115.488 12.2884 115.755 11.6862 115.918 10.8789C116.087 10.0716 116.172 9.0625 116.172 7.85156C116.172 6.65365 116.09 5.65104 115.928 4.84375C115.765 4.03646 115.498 3.43099 115.127 3.02734C114.756 2.61719 114.258 2.41211 113.633 2.41211C113.008 2.41211 112.51 2.61719 112.139 3.02734C111.774 3.43099 111.51 4.03646 111.348 4.84375C111.191 5.65104 111.113 6.65365 111.113 7.85156Z" fill="#023A59"/>
</svg>
