<svg width="35" height="35" viewBox="0 0 35 35" fill="none" xmlns="http://www.w3.org/2000/svg">
<g clip-path="url(#clip0_29_94)">
<path fill-rule="evenodd" clip-rule="evenodd" d="M17.5 13.6729C19.8666 13.6729 21.785 15.5617 21.785 17.8917C21.785 20.2212 19.8666 22.11 17.5 22.11C15.1334 22.11 13.2149 20.2212 13.2149 17.8917C13.2149 15.5617 15.1334 13.6729 17.5 13.6729ZM17.5 11.986C14.1868 11.986 11.5009 14.63 11.5009 17.8917C11.5009 21.153 14.1868 23.7974 17.5 23.7974C20.8132 23.7974 23.4991 21.153 23.4991 17.8917C23.4991 14.63 20.8132 11.986 17.5 11.986ZM23.6843 10.5663C23.3517 10.5715 23.028 10.6749 22.754 10.8635C22.48 11.052 22.2678 11.3174 22.1441 11.6262C22.0204 11.935 21.9907 12.2735 22.0588 12.5991C22.1269 12.9248 22.2897 13.223 22.5267 13.4564C22.7638 13.6898 23.0645 13.8479 23.3912 13.9109C23.7178 13.9738 24.0558 13.9389 24.3626 13.8104C24.6695 13.6819 24.9315 13.4656 25.1158 13.1886C25.3001 12.9116 25.3984 12.5864 25.3984 12.2537C25.3948 11.8027 25.2122 11.3715 24.8908 11.0551C24.5694 10.7386 24.1354 10.5628 23.6843 10.5663ZM13.3124 8.7298H21.6876C24.4121 8.7298 26.6208 10.9041 26.6208 13.586V22.1969C26.6208 24.8792 24.4121 27.0531 21.6875 27.0531H13.3124C10.5879 27.0531 8.37915 24.8793 8.37915 22.1969V13.5861C8.37915 10.9042 10.5878 8.7298 13.3124 8.7298ZM12.5226 7.05028C9.28409 7.05028 6.65875 9.63495 6.65875 12.8229V22.96C6.65875 26.1485 9.28402 28.7326 12.5226 28.7326H22.4774C25.7159 28.7326 28.3412 26.1485 28.3412 22.96V12.8229C28.3412 9.63495 25.7159 7.05035 22.4774 7.05035L12.5226 7.05028ZM17.5 0.952148C26.8554 0.952148 34.4395 8.53594 34.4395 17.8917C34.4395 27.2471 26.8554 34.8309 17.5 34.8309C8.14461 34.8309 0.560547 27.2471 0.560547 17.8917C0.560547 8.53594 8.14454 0.952148 17.5 0.952148Z" fill="white"/>
</g>
<defs>
<clipPath id="clip0_29_94">
<rect width="35" height="35" fill="white"/>
</clipPath>
</defs>
</svg>
