<svg width="35" height="35" viewBox="0 0 35 35" fill="none" xmlns="http://www.w3.org/2000/svg">
<g clip-path="url(#clip0_29_97)">
<path d="M17.5 34.9998C27.165 34.9998 35 27.1647 35 17.4998C35 7.83477 27.165 -0.000244141 17.5 -0.000244141C7.83502 -0.000244141 0 7.83477 0 17.4998C0 27.1647 7.83502 34.9998 17.5 34.9998Z" fill="white"/>
<path d="M27.9562 18.9079V26.1228H23.7732V19.3914C23.7732 17.7013 23.1693 16.547 21.6547 16.547C20.4989 16.547 19.8123 17.3241 19.5091 18.0766C19.399 18.3455 19.3706 18.7189 19.3706 19.096V26.1225H15.1873C15.1873 26.1225 15.2434 14.7218 15.1873 13.5417H19.3709V15.3245C19.3625 15.3385 19.3506 15.3523 19.3431 15.3657H19.3709V15.3245C19.9268 14.4691 20.9182 13.2463 23.1409 13.2463C25.8929 13.2463 27.9562 15.0444 27.9562 18.9079ZM10.8112 7.47729C9.38027 7.47729 8.44409 8.41659 8.44409 9.65068C8.44409 10.8586 9.35313 11.825 10.7563 11.825H10.7834C12.2424 11.825 13.1496 10.8586 13.1496 9.65068C13.1218 8.41659 12.2424 7.47729 10.8112 7.47729ZM8.69272 26.1228H12.8745V13.5417H8.69272V26.1228Z" fill="#023A59"/>
</g>
<defs>
<clipPath id="clip0_29_97">
<rect width="35" height="35" fill="white"/>
</clipPath>
</defs>
</svg>
