<svg width="100" height="100" viewBox="0 0 100 100" fill="none" xmlns="http://www.w3.org/2000/svg">
<circle opacity="0.1" cx="50" cy="50" r="50" fill="#2788E8"/>
<path d="M45.4615 41.6642V40.688C45.4615 39.5249 46.4071 38.5821 47.5737 38.5821H49.7959C50.9624 38.5821 51.9081 39.5249 51.9081 40.688V41.6365M46.8754 49.2245H40.6477V54.9885C40.6477 56.1516 41.5934 57.0945 42.7598 57.0945H54.6097C55.7762 57.0945 56.7218 56.1516 56.7218 54.9885V49.2245H50.4757" stroke="#2788E8" stroke-miterlimit="10" stroke-linecap="round" stroke-linejoin="round"/>
<path d="M46.8701 49.2245H39.5271V43.8847C39.5271 42.7211 40.4722 41.7777 41.6381 41.7777H55.7315C56.8974 41.7777 57.8425 42.7211 57.8425 43.8847V49.2245H50.4995" stroke="#2788E8" stroke-miterlimit="10" stroke-linecap="round" stroke-linejoin="round"/>
<path d="M46.9485 47.5126H50.4024V51.6839H46.9485V47.5126Z" stroke="#2788E8" stroke-miterlimit="10" stroke-linecap="round" stroke-linejoin="round"/>
<path d="M48.6847 67.4173C59.0039 67.4173 67.3694 59.0412 67.3694 48.7087C67.3694 38.3762 59.0039 30 48.6847 30C38.3654 30 30 38.3762 30 48.7087C30 59.0412 38.3654 67.4173 48.6847 67.4173Z" stroke="#2788E8" stroke-miterlimit="10" stroke-linecap="round" stroke-linejoin="round"/>
<path d="M48.6846 63.565C56.879 63.565 63.5218 56.9136 63.5218 48.7087C63.5218 40.5037 56.879 33.8523 48.6846 33.8523C40.4903 33.8523 33.8474 40.5037 33.8474 48.7087C33.8474 56.9136 40.4903 63.565 48.6846 63.565Z" stroke="#2788E8" stroke-miterlimit="10" stroke-linecap="round" stroke-linejoin="round"/>
<path d="M62.0264 62.0678L65.0169 65.0623M70.9998 68.3434L68.3466 71L63.8064 66.5068L66.4597 63.8502L70.9998 68.3434Z" stroke="#2788E8" stroke-miterlimit="10" stroke-linecap="round" stroke-linejoin="round"/>
</svg>
