<svg width="100" height="100" viewBox="0 0 100 100" fill="none" xmlns="http://www.w3.org/2000/svg">
<circle opacity="0.1" cx="50" cy="50" r="50" fill="#515592"/>
<path d="M74.0836 54.2603C72.0682 65.2673 62.4709 73.2562 51.2631 73.2562C45.722 73.2562 40.4439 71.31 36.2538 67.7484L36.4971 70.1822C36.5063 70.2751 36.4972 70.3689 36.4702 70.4583C36.4433 70.5477 36.3989 70.6309 36.3398 70.7031C36.2807 70.7754 36.2079 70.8353 36.1256 70.8794C36.0433 70.9235 35.9532 70.951 35.8603 70.9603C35.4696 71.0003 35.1213 70.7143 35.0822 70.3236L34.653 66.0289C34.6343 65.8413 34.6908 65.6539 34.8102 65.508C34.9296 65.3621 35.1021 65.2696 35.2897 65.2508L39.5844 64.8215C39.9752 64.7815 40.3234 65.0675 40.3625 65.4582C40.3813 65.6458 40.3247 65.8332 40.2053 65.9791C40.0859 66.125 39.9134 66.2175 39.7258 66.2363L36.9938 66.5094C40.9553 69.9511 45.9818 71.8343 51.2631 71.8343C61.7841 71.8343 70.7932 64.3357 72.685 54.0041C72.7018 53.9123 72.7366 53.8247 72.7872 53.7462C72.8379 53.6678 72.9036 53.6002 72.9804 53.5471C73.0572 53.4941 73.1437 53.4567 73.235 53.4371C73.3263 53.4175 73.4205 53.4161 73.5124 53.4329C73.6042 53.4497 73.6918 53.4844 73.7702 53.5351C73.8487 53.5858 73.9163 53.6514 73.9694 53.7283C74.0224 53.8051 74.0598 53.8916 74.0794 53.9829C74.099 54.0742 74.1004 54.1684 74.0836 54.2603ZM74.6675 39.549C74.4956 39.4715 74.3 39.4654 74.1237 39.5321C73.9473 39.5987 73.8047 39.7327 73.727 39.9045L72.7208 42.134C70.8728 36.9544 67.275 32.6299 62.4762 29.8594C52.77 24.2553 40.464 26.3753 33.2151 34.9001C33.0946 35.0439 33.0359 35.2296 33.0517 35.4165C33.0675 35.6035 33.1566 35.7766 33.2996 35.8982C33.4425 36.0197 33.6277 36.0798 33.8148 36.0654C34.0018 36.051 34.1756 35.9632 34.2982 35.8212C41.1023 27.8197 52.6539 25.8302 61.7653 31.0907C66.3391 33.7313 69.7506 37.8756 71.4604 42.8369L68.9579 41.7073C68.7862 41.6309 68.5912 41.6255 68.4156 41.6923C68.2399 41.7592 68.0979 41.8929 68.0206 42.0642C67.9433 42.2355 67.9369 42.4305 68.0029 42.6065C68.0689 42.7824 68.202 42.9251 68.3729 43.0033L72.3068 44.7789C72.3919 44.8173 72.4837 44.8387 72.577 44.8416C72.6703 44.8445 72.7633 44.829 72.8507 44.7959C73.027 44.7293 73.1697 44.5953 73.2473 44.4234L75.0229 40.4895C75.0613 40.4044 75.0826 40.3126 75.0855 40.2193C75.0885 40.126 75.073 40.033 75.04 39.9456C75.007 39.8583 74.9571 39.7783 74.8932 39.7103C74.8293 39.6422 74.7526 39.5874 74.6675 39.549ZM30.0733 50.0557C30.0733 49.8671 29.9984 49.6863 29.8651 49.553C29.7318 49.4196 29.551 49.3447 29.3624 49.3447H25.625C25.4364 49.3447 25.2556 49.4196 25.1223 49.553C24.989 49.6863 24.9141 49.8671 24.9141 50.0557C24.9141 50.2442 24.989 50.425 25.1223 50.5584C25.2556 50.6917 25.4364 50.7666 25.625 50.7666H29.3624C29.551 50.7666 29.7318 50.6917 29.8651 50.5584C29.9984 50.425 30.0733 50.2442 30.0733 50.0557ZM37.2826 50.0557C37.2826 49.8671 37.2077 49.6863 37.0744 49.553C36.9411 49.4196 36.7603 49.3447 36.5717 49.3447H32.8343C32.6458 49.3447 32.4649 49.4196 32.3316 49.553C32.1983 49.6863 32.1234 49.8671 32.1234 50.0557C32.1234 50.2442 32.1983 50.425 32.3316 50.5584C32.4649 50.6917 32.6458 50.7666 32.8343 50.7666H36.5717C36.7603 50.7666 36.9411 50.6917 37.0744 50.5584C37.2077 50.425 37.2826 50.2442 37.2826 50.0557ZM31.5309 58.8774H27.7935C27.6049 58.8774 27.4241 58.9523 27.2908 59.0856C27.1574 59.2189 27.0825 59.3998 27.0825 59.5883C27.0825 59.7769 27.1574 59.9577 27.2908 60.091C27.4241 60.2244 27.6049 60.2993 27.7935 60.2993H31.5309C31.7194 60.2993 31.9002 60.2244 32.0336 60.091C32.1669 59.9577 32.2418 59.7769 32.2418 59.5883C32.2418 59.3998 32.1669 59.2189 32.0336 59.0856C31.9002 58.9523 31.7194 58.8774 31.5309 58.8774ZM38.7402 60.2993C38.9287 60.2993 39.1096 60.2244 39.2429 60.091C39.3762 59.9577 39.4511 59.7769 39.4511 59.5883C39.4511 59.3998 39.3762 59.2189 39.2429 59.0856C39.1096 58.9523 38.9287 58.8774 38.7402 58.8774H35.0028C34.8142 58.8774 34.6334 58.9523 34.5001 59.0856C34.3667 59.2189 34.2918 59.3998 34.2918 59.5883C34.2918 59.7769 34.3667 59.9577 34.5001 60.091C34.6334 60.2244 34.8142 60.2993 35.0028 60.2993H38.7402ZM27.7935 41.2337H31.5309C31.7194 41.2337 31.9002 41.1588 32.0336 41.0255C32.1669 40.8922 32.2418 40.7114 32.2418 40.5228C32.2418 40.3343 32.1669 40.1534 32.0336 40.0201C31.9002 39.8868 31.7194 39.8119 31.5309 39.8119H27.7935C27.6049 39.8119 27.4241 39.8868 27.2908 40.0201C27.1574 40.1534 27.0825 40.3343 27.0825 40.5228C27.0825 40.7114 27.1574 40.8922 27.2908 41.0255C27.4241 41.1588 27.6049 41.2337 27.7935 41.2337ZM38.7402 41.2337C38.9287 41.2337 39.1096 41.1588 39.2429 41.0255C39.3762 40.8922 39.4511 40.7114 39.4511 40.5228C39.4511 40.3343 39.3762 40.1534 39.2429 40.0201C39.1096 39.8868 38.9287 39.8119 38.7402 39.8119H35.0028C34.8142 39.8119 34.6334 39.8868 34.5001 40.0201C34.3667 40.1534 34.2918 40.3343 34.2918 40.5228C34.2918 40.7114 34.3667 40.8922 34.5001 41.0255C34.6334 41.1588 34.8142 41.2337 35.0028 41.2337H38.7402Z" fill="#515592"/>
<path d="M58.6961 56.8465C58.4806 57.0069 58.5614 57.1941 58.5614 57.3545L59.2888 59.4663L53.6045 58.5307C53.3621 58.4772 52.9041 58.4505 52.8233 59.0386L53.0657 65H51.9073C52.0061 63.1733 52.1821 59.4236 52.0959 59.0386C51.9881 58.5574 51.9881 58.6644 51.6649 58.4505L45.6573 59.4396C45.8728 58.896 46.3147 57.7234 46.3578 57.3812C46.4116 56.9535 46.3578 57.1406 46.3578 56.9802L40 51.7139C40.5208 51.4554 41.5625 50.9333 41.5625 50.9119C41.5625 50.8851 41.5894 50.8584 41.5894 50.5644L40.458 46.795C41.4727 47 43.5668 47.4206 43.8254 47.4634C44.1487 47.5168 44.1218 47.4634 44.3642 47.4634L45.1994 45.6188C46.1243 46.5812 48.0172 48.5434 48.1897 48.6931C48.4052 48.8802 48.5938 48.6931 48.8093 48.5059L47.4084 41.2614C48.0909 41.6267 49.4881 42.3842 49.6175 42.4911C49.7791 42.6248 49.9407 42.4911 50.0485 42.4911L52.5269 38C53.2902 39.4525 54.8222 42.3788 54.8438 42.4644C54.8653 42.5499 55.1401 42.5178 55.2748 42.4911L57.5108 41.2614C57.0797 43.605 56.2123 48.3349 56.1907 48.5059C56.1638 48.7198 56.4871 48.7465 56.8103 48.6931L59.7737 45.6188C60.0341 46.1891 60.5603 47.3457 60.5819 47.4099C60.6088 47.4901 60.8244 47.5168 61.0129 47.5168L64.5959 46.795C64.2277 47.9089 63.4591 50.2222 63.3297 50.5644C63.1681 50.9921 63.5722 51.0455 63.5722 51.099L65 51.7941C62.9705 53.4248 58.8685 56.7182 58.6961 56.8465Z" stroke="#515592" stroke-width="0.8"/>
</svg>
