<svg width="100" height="100" viewBox="0 0 100 100" fill="none" xmlns="http://www.w3.org/2000/svg">
<circle opacity="0.1" cx="50" cy="50" r="50" fill="#F28862"/>
<path d="M49.9999 55.2081C49.8805 55.2081 49.7626 55.1817 49.6546 55.1309L24.4671 43.2806C24.3275 43.215 24.2095 43.111 24.1268 42.9808C24.0441 42.8506 24.0002 42.6996 24.0002 42.5453C24.0002 42.3911 24.0441 42.24 24.1268 42.1098C24.2095 41.9796 24.3275 41.8756 24.4671 41.81L49.6546 29.9556C49.7626 29.9049 49.8805 29.8786 49.9999 29.8786C50.1193 29.8786 50.2372 29.9049 50.3452 29.9556L75.5327 41.81C75.6723 41.8756 75.7903 41.9796 75.873 42.1098C75.9557 42.24 75.9996 42.3911 75.9996 42.5453C75.9996 42.6996 75.9557 42.8506 75.873 42.9808C75.7903 43.111 75.6723 43.215 75.5327 43.2806L50.3452 55.1309C50.2372 55.1817 50.1193 55.2081 49.9999 55.2081ZM26.7218 42.5453L49.9999 53.5141L73.278 42.5453L49.9999 31.5888L26.7218 42.5453Z" fill="#F28862"/>
<path d="M33.75 56.5C33.5345 56.5 33.3278 56.4144 33.1755 56.262C33.0231 56.1097 32.9375 55.903 32.9375 55.6875V47.1562C32.9375 46.9408 33.0231 46.7341 33.1755 46.5817C33.3278 46.4294 33.5345 46.3438 33.75 46.3438C33.9655 46.3438 34.1722 46.4294 34.3245 46.5817C34.4769 46.7341 34.5625 46.9408 34.5625 47.1562V55.6875C34.5625 55.903 34.4769 56.1097 34.3245 56.262C34.1722 56.4144 33.9655 56.5 33.75 56.5ZM66.25 56.5C66.0345 56.5 65.8278 56.4144 65.6755 56.262C65.5231 56.1097 65.4375 55.903 65.4375 55.6875V47.1562C65.4375 46.9408 65.5231 46.7341 65.6755 46.5817C65.8278 46.4294 66.0345 46.3438 66.25 46.3438C66.4655 46.3438 66.6722 46.4294 66.8245 46.5817C66.9769 46.7341 67.0625 46.9408 67.0625 47.1562V55.6875C67.0625 55.903 66.9769 56.1097 66.8245 56.262C66.6722 56.4144 66.4655 56.5 66.25 56.5Z" fill="#F28862"/>
<path d="M50 64.8403C40.8106 64.8403 32.9375 59.8069 32.9375 55.6875C32.9375 55.472 33.0231 55.2653 33.1755 55.113C33.3278 54.9606 33.5345 54.875 33.75 54.875C33.9655 54.875 34.1722 54.9606 34.3245 55.113C34.4769 55.2653 34.5625 55.472 34.5625 55.6875C34.5625 58.2631 41.0625 63.2153 50 63.2153C58.9375 63.2153 65.4375 58.2631 65.4375 55.6875C65.4375 55.472 65.5231 55.2653 65.6755 55.113C65.8278 54.9606 66.0345 54.875 66.25 54.875C66.4655 54.875 66.6722 54.9606 66.8245 55.113C66.9769 55.2653 67.0625 55.472 67.0625 55.6875C67.0625 59.8069 59.1894 64.8403 50 64.8403Z" fill="#F28862"/>
<path d="M62.1875 65.0313C61.972 65.0313 61.7653 64.9457 61.6129 64.7933C61.4606 64.6409 61.375 64.4342 61.375 64.2188V48.8788L49.6384 43.0084C49.5395 42.963 49.4508 42.8982 49.3774 42.8179C49.3041 42.7375 49.2476 42.6432 49.2114 42.5406C49.1752 42.438 49.1599 42.3292 49.1666 42.2206C49.1732 42.112 49.2016 42.0058 49.25 41.9084C49.2984 41.8109 49.366 41.7242 49.4486 41.6534C49.5311 41.5826 49.6271 41.529 49.7308 41.496C49.8344 41.4629 49.9437 41.4511 50.052 41.461C50.1604 41.471 50.2656 41.5027 50.3615 41.5541L62.549 47.6478C62.6844 47.7151 62.7983 47.8188 62.878 47.9472C62.9576 48.0757 62.9999 48.2239 63 48.375V64.2188C63 64.4342 62.9144 64.6409 62.762 64.7933C62.6096 64.9457 62.403 65.0313 62.1875 65.0313Z" fill="#F28862"/>
<path d="M62.1875 68.6875C61.7054 68.6875 61.2341 68.5445 60.8333 68.2767C60.4325 68.0089 60.12 67.6282 59.9355 67.1828C59.7511 66.7374 59.7028 66.2473 59.7968 65.7745C59.8909 65.3016 60.123 64.8673 60.4639 64.5264C60.8048 64.1855 61.2391 63.9534 61.712 63.8593C62.1848 63.7653 62.6749 63.8136 63.1203 63.998C63.5657 64.1825 63.9464 64.495 64.2142 64.8958C64.482 65.2966 64.625 65.7679 64.625 66.25C64.625 66.8965 64.3682 67.5165 63.9111 67.9736C63.454 68.4307 62.834 68.6875 62.1875 68.6875ZM62.1875 65.4375C62.0268 65.4375 61.8697 65.4852 61.7361 65.5744C61.6025 65.6637 61.4983 65.7906 61.4369 65.9391C61.3754 66.0875 61.3593 66.2509 61.3906 66.4085C61.422 66.5661 61.4993 66.7109 61.613 66.8245C61.7266 66.9382 61.8714 67.0155 62.029 67.0469C62.1866 67.0782 62.35 67.0621 62.4984 67.0007C62.6469 66.9392 62.7738 66.835 62.8631 66.7014C62.9523 66.5678 63 66.4107 63 66.25C63 66.0345 62.9144 65.8278 62.762 65.6755C62.6097 65.5231 62.403 65.4375 62.1875 65.4375Z" fill="#F28862"/>
<path d="M63.4063 73.5625H60.9688C60.856 73.5629 60.7444 73.5398 60.641 73.4948C60.5376 73.4497 60.4448 73.3836 60.3684 73.3007C60.2919 73.2177 60.2336 73.1198 60.1971 73.0131C60.1606 72.9064 60.1467 72.7933 60.1563 72.6809L60.5625 67.806C60.5706 67.5905 60.6639 67.387 60.822 67.2403C60.9801 67.0937 61.19 67.0158 61.4055 67.0239C61.621 67.032 61.8244 67.1254 61.9711 67.2834C62.1177 67.4415 62.1956 67.6514 62.1875 67.8669C62.1794 67.6514 62.2573 67.4415 62.4039 67.2834C62.5506 67.1254 62.7541 67.032 62.9695 67.0239C63.185 67.0158 63.3949 67.0937 63.553 67.2403C63.7111 67.387 63.8044 67.5905 63.8125 67.806L64.2188 72.6809C64.2283 72.7933 64.2144 72.9064 64.1779 73.0131C64.1414 73.1198 64.0831 73.2177 64.0067 73.3007C63.9302 73.3836 63.8374 73.4497 63.734 73.4948C63.6306 73.5398 63.519 73.5629 63.4063 73.5625ZM61.8503 71.9375H62.5247L62.1875 67.9441C62.1855 67.9238 62.1855 67.9034 62.1875 67.8831C62.1895 67.9034 62.1895 67.9238 62.1875 67.9441L61.8503 71.9375Z" fill="#F28862"/>
</svg>
