<svg width="100" height="100" viewBox="0 0 100 100" fill="none" xmlns="http://www.w3.org/2000/svg">
<circle opacity="0.1" cx="50" cy="50" r="50" fill="#0BCD82"/>
<path d="M50.9411 29.0454L50.9909 28.997C39.9142 28.8901 28.7043 37.8363 28.8952 50.9844C29.0804 63.7038 39.3266 72.6727 51.2837 72.1228C52.856 72.053 54.4148 71.7994 55.9281 71.367C57.8108 72.8451 60.9329 73.8295 62.9759 73.0011C63.8093 72.6556 64.553 72.1007 65.1748 71.3912C67.4771 69.2884 67.8268 65.6983 67.2833 62.5726C70.7125 57.7053 71.682 52.1063 70.8001 46.895C69.1788 37.3106 61.2969 29.0397 50.9411 29.0454ZM61.678 33.7682C61.6373 33.8513 61.6196 33.9437 61.6267 34.036C61.8034 35.7762 59.9243 36.9971 58.4056 36.1423C57.2837 35.5098 56.6675 33.8722 55.1645 33.3237C52.4113 32.3157 50.3748 35.5233 48.1445 35.2918C47.294 35.2014 46.4563 34.536 46.0096 33.5965C45.6748 32.8927 45.526 32.0237 45.5281 30.9153C51.2766 29.2078 56.9282 30.2514 61.678 33.7682ZM31.8122 44.7957C35.5569 43.6695 40.6066 46.028 36.9474 47.9293C36.0962 48.3581 35.2214 48.7534 34.7356 49.5633C34.1194 50.5934 34.4393 52.0401 35.4351 52.7232C35.8169 52.9832 36.3163 53.1691 36.3711 53.38C36.4993 53.8701 34.0276 55.5056 31.3029 54.6992C31.0172 53.3854 30.8579 52.0472 30.8271 50.7031C30.7742 48.711 31.0232 46.7225 31.5657 44.805C31.6475 44.8217 31.732 44.8185 31.8122 44.7957ZM41.9935 63.567C43.2586 61.2377 45.9242 60.5838 46.2703 60.9969C46.4897 61.2598 46.1371 61.9871 46.0317 62.5968C45.7397 64.2501 47.3488 65.8792 49.0093 65.61C50.9112 65.2994 51.8051 63.0748 53.2619 62.8882C53.9514 62.8027 54.7535 63.2208 55.4131 64.0165C56.3733 65.1712 56.9866 67.5696 56.8328 69.3404C54.9172 70.0379 52.9001 70.4164 50.862 70.4609C47.6943 70.5323 44.5586 69.8149 41.7371 68.3731C41.3339 66.9534 41.3311 64.7872 41.9935 63.567ZM55.5997 54.0916C55.5662 53.2311 55.4622 52.3934 55.3333 51.2743C55.3237 51.1963 55.2969 51.1213 55.2548 51.0549C55.2126 50.9885 55.1562 50.9323 55.0897 50.8904C54.3895 50.2279 53.1678 48.9123 51.1113 47.4164C51.0489 47.3708 50.9773 47.3394 50.9016 47.3242C50.8258 47.309 50.7476 47.3104 50.6724 47.3284C50.5973 47.3463 50.5269 47.3803 50.4662 47.4281C50.4054 47.4759 50.3558 47.5363 50.3207 47.6051C48.9145 50.3626 48.0305 52.9804 47.4742 56.017C47.0076 55.782 46.9791 55.7677 46.8894 55.7179C47.4464 51.8634 47.5461 48.2156 47.5988 44.8036C47.6001 44.7206 47.5821 44.6384 47.5461 44.5636C47.5101 44.4888 47.4572 44.4234 47.3916 44.3726C45.6193 43.0007 44.0009 41.851 42.4487 40.8608C42.1581 39.9633 41.9551 39.8222 42.0797 39.6313C42.1766 39.4817 42.2343 39.5729 43.1817 39.4711C45.184 40.8053 47.0724 41.9713 48.7948 42.9387C48.9402 43.0199 49.1154 43.0299 49.2693 42.9629C52.3109 41.6487 55.7821 40.5488 59.3273 39.7738C59.3708 39.8415 59.4427 39.959 59.484 40.0302C56.9752 41.2554 54.4137 43.0697 52.0416 45.3179C51.9902 45.3665 51.9489 45.4249 51.9202 45.4897C51.8916 45.5545 51.8761 45.6243 51.8747 45.6951C51.8733 45.7659 51.886 45.8363 51.9121 45.9021C51.9382 45.968 51.9772 46.028 52.0267 46.0786C53.4407 47.5318 54.7193 48.7299 55.8234 49.6374C56.3021 50.0278 56.7893 49.3525 59.452 48.8225C59.5638 48.9543 59.6814 49.1096 59.7975 49.2748C57.4254 50.785 56.6119 51.419 55.8156 54.1828C55.7437 54.1522 55.6718 54.1218 55.5997 54.0916ZM58.6271 51.3826C63.3271 56.4601 68.9837 66.0587 64.1213 70.9453C67.4742 65.766 62.728 57.8812 57.4539 52.8543C57.7311 52.2829 58.1319 51.7802 58.6271 51.3826ZM64.0686 66.2012C64.1982 67.613 64.0116 68.6516 63.6804 69.485C62.2735 71.5323 59.6885 71.7331 57.9746 70.6568C60.0204 69.7977 61.9138 68.5412 63.305 66.8701C63.5664 66.6564 63.8164 66.4291 64.0686 66.2012ZM60.2106 50.2799C60.4143 50.1467 60.6074 50.0256 60.7719 49.9309C60.7919 49.9231 60.8133 49.9259 60.8318 49.9152C60.9531 49.8419 61.0403 49.7235 61.0744 49.5859C61.1084 49.4484 61.0865 49.3029 61.0134 49.1815C60.8645 48.9351 60.4699 48.3125 60.0233 47.8659C59.9628 47.8049 59.8884 47.7595 59.8065 47.7337C59.7246 47.7079 59.6376 47.7024 59.5531 47.7177C58.355 47.9278 57.2936 48.2733 56.2736 48.6224C55.354 47.8495 54.314 46.8764 53.1735 45.7225C55.515 43.5712 58.0238 41.8559 60.4557 40.7468C60.5735 40.6918 60.667 40.5953 60.7183 40.4757C60.7695 40.3562 60.7749 40.2219 60.7335 40.0986C60.7235 40.0082 60.6898 39.9219 60.6359 39.8486C60.289 39.3998 60.014 38.5386 59.4178 38.6619C55.7913 39.4333 52.2261 40.5431 49.089 41.8773C44.0785 39.0365 43.7637 38.3256 43.2472 38.3869C42.2678 38.5116 41.6509 38.3377 41.1865 39.0444C41.0735 39.2168 41.0031 39.4136 40.9809 39.6185C40.9587 39.8234 40.9855 40.0307 41.059 40.2233C42.0484 42.6146 40.4414 40.3729 46.5261 45.0543C46.4691 48.5839 46.3601 52.08 45.7817 55.9023C45.6805 56.5741 46.8181 56.7557 47.4535 57.2365C47.5215 57.2886 47.6012 57.3233 47.6856 57.3377C47.77 57.3521 47.8567 57.3458 47.9381 57.3193C48.0195 57.2928 48.0933 57.2469 48.1531 57.1856C48.2129 57.1243 48.2569 57.0494 48.2813 56.9673C48.7443 56.5128 48.4878 53.7974 50.9895 48.6587C52.0765 49.4893 53.1194 50.421 54.2969 51.6091C54.336 52.038 54.3945 52.2103 54.5156 54.1165C54.5676 54.9272 54.6131 54.8303 55.3476 55.1451C55.8939 55.3823 55.9288 55.4066 56.1147 55.3802C56.2507 55.4026 56.39 55.3713 56.5032 55.2929C56.6165 55.2145 56.6948 55.0951 56.7216 54.9599C56.7886 54.6266 56.8983 54.274 57.0194 53.9285C60.2313 57.0485 62.9673 60.4363 63.8813 64.9283C62.1497 66.6003 60.1297 67.945 57.9191 68.8974C57.9404 66.9363 57.2673 64.5749 56.2358 63.3334C55.3276 62.2392 54.1914 61.6936 53.1251 61.8275C51.1954 62.0761 50.3021 64.3171 48.8369 64.5557C47.9073 64.7096 46.92 63.7137 47.0831 62.782C47.2056 62.0982 47.7556 61.1052 47.0888 60.3109C46.6856 59.8266 45.9904 59.6798 45.1306 59.8949C43.4203 60.3252 41.8967 61.5062 41.054 63.0563C40.3943 64.2722 40.2754 66.1442 40.4998 67.6793C36.2543 65.0964 33.0132 60.9193 31.5999 55.8788C33.3665 56.2215 35.1402 55.8126 36.4943 54.8837C37.2337 54.3751 37.5657 53.7297 37.404 53.1093C37.2081 52.3614 36.458 52.1263 36.0377 51.8414C35.5106 51.4802 35.3261 50.6553 35.6524 50.1125C35.9722 49.5769 36.6639 49.2677 37.4403 48.8766C40.145 47.4719 39.7077 45.1462 37.2345 44.0919C35.5854 43.3867 33.6778 43.2443 31.929 43.6653C33.9734 37.894 38.7054 33.3265 44.4525 31.265C44.538 34.5603 46.3017 36.1701 48.0291 36.3546C50.5557 36.6182 52.7817 33.5908 54.7969 34.3266C55.9459 34.7469 56.5436 36.3197 57.8806 37.0726C59.8082 38.1597 62.4181 37.0157 62.6796 34.561C66.3566 37.671 68.8319 42.0533 69.6988 46.7682C70.5764 51.5422 69.8057 56.6567 66.9635 61.1358C65.8394 57.0243 62.9374 53.4733 60.2106 50.2799Z" fill="#0BCD82"/>
<path d="M65.9756 44.0435C65.5931 43.7778 65.5788 43.7657 65.6159 43.2514C65.633 43.0099 65.6529 42.7357 65.5788 42.4486C65.197 40.9598 63.0394 40.8722 62.4325 42.4386C62.0051 43.5434 60.0839 44.0763 60.98 46.3849C61.7529 48.3766 64.6813 49.1602 66.2441 47.6792C66.7257 47.2233 67.0049 46.5366 66.9914 45.8436C66.9729 44.9816 66.5818 44.4631 65.9756 44.0435ZM61.9766 45.9981C61.3462 44.3747 62.8349 44.3562 63.429 42.8247C63.5359 42.549 63.8087 42.3624 64.0466 42.3624C64.2653 42.3624 64.4947 42.5227 64.5438 42.7136C64.6307 43.0534 64.3892 43.661 64.6955 44.2479C65.1009 45.0244 65.9037 44.889 65.9229 45.8649C65.9614 47.8516 62.6903 47.8423 61.9766 45.9981ZM61.6974 30.0982L62.0877 27.3059C62.1007 27.1688 62.0602 27.032 61.9748 26.9239C61.8894 26.8159 61.7657 26.7449 61.6293 26.7258C61.4929 26.7067 61.3544 26.741 61.2426 26.8214C61.1308 26.9019 61.0544 27.0223 61.0292 27.1577L60.6388 29.9508C60.542 30.651 61.5991 30.7985 61.6974 30.0982ZM65.0047 28.378L63.2623 30.8775C62.8542 31.4623 63.7439 32.0564 64.1385 31.488L65.8809 28.9891C65.9227 28.9317 65.9527 28.8665 65.969 28.7973C65.9853 28.7281 65.9877 28.6564 65.9759 28.5863C65.9642 28.5162 65.9385 28.4491 65.9005 28.3891C65.8626 28.329 65.813 28.2771 65.7547 28.2364C65.6964 28.1958 65.6306 28.1672 65.5611 28.1522C65.4916 28.1373 65.4198 28.1365 65.3499 28.1496C65.2801 28.1628 65.2136 28.1898 65.1543 28.229C65.095 28.2682 65.0442 28.3189 65.0047 28.378ZM66.1587 34.1364L69.2416 31.8242C69.355 31.7392 69.4299 31.6126 69.45 31.4724C69.47 31.3321 69.4335 31.1896 69.3485 31.0763C69.2635 30.9629 69.1369 30.888 68.9966 30.8679C68.8564 30.8479 68.7139 30.8844 68.6005 30.9694L65.5169 33.2823C64.9477 33.709 65.6009 34.5567 66.158 34.1371L66.1587 34.1364Z" fill="#0BCD82"/>
</svg>
