<svg width="81" height="16" viewBox="0 0 81 16" fill="none" xmlns="http://www.w3.org/2000/svg">
<path d="M7.23242 15L2.4375 2.36328H2.35938C2.38542 2.63021 2.4082 2.95573 2.42773 3.33984C2.44727 3.72396 2.46354 4.14388 2.47656 4.59961C2.48958 5.04883 2.49609 5.50781 2.49609 5.97656V15H0.953125V0.722656H3.41406L7.93555 12.5977H8.00391L12.5938 0.722656H15.0352V15H13.3945V5.85938C13.3945 5.4362 13.401 5.01302 13.4141 4.58984C13.4271 4.16016 13.4434 3.75651 13.4629 3.37891C13.4824 2.99479 13.502 2.66276 13.5215 2.38281H13.4434L8.58984 15H7.23242ZM27.9258 9.62891C27.9258 10.5078 27.8118 11.2923 27.584 11.9824C27.3561 12.6725 27.0273 13.2552 26.5977 13.7305C26.168 14.2057 25.6471 14.5703 25.0352 14.8242C24.4297 15.0716 23.7428 15.1953 22.9746 15.1953C22.2585 15.1953 21.6009 15.0716 21.002 14.8242C20.4095 14.5703 19.8952 14.2057 19.459 13.7305C19.0293 13.2552 18.694 12.6725 18.4531 11.9824C18.2188 11.2923 18.1016 10.5078 18.1016 9.62891C18.1016 8.45703 18.3001 7.46094 18.6973 6.64062C19.0944 5.8138 19.6608 5.18555 20.3965 4.75586C21.1387 4.31966 22.0208 4.10156 23.043 4.10156C24.0195 4.10156 24.8724 4.31966 25.6016 4.75586C26.3372 5.19206 26.9069 5.82357 27.3105 6.65039C27.7207 7.4707 27.9258 8.46354 27.9258 9.62891ZM19.7812 9.62891C19.7812 10.4883 19.8952 11.2337 20.123 11.8652C20.3509 12.4967 20.7025 12.985 21.1777 13.3301C21.653 13.6751 22.265 13.8477 23.0137 13.8477C23.7559 13.8477 24.3646 13.6751 24.8398 13.3301C25.3216 12.985 25.6764 12.4967 25.9043 11.8652C26.1322 11.2337 26.2461 10.4883 26.2461 9.62891C26.2461 8.77604 26.1322 8.04036 25.9043 7.42188C25.6764 6.79688 25.3249 6.3151 24.8496 5.97656C24.3743 5.63802 23.7591 5.46875 23.0039 5.46875C21.8906 5.46875 21.0736 5.83659 20.5527 6.57227C20.0384 7.30794 19.7812 8.32682 19.7812 9.62891ZM35.7969 4.10156C37.0664 4.10156 38.0267 4.41406 38.6777 5.03906C39.3288 5.65755 39.6543 6.65365 39.6543 8.02734V15H38.0527V8.13477C38.0527 7.24284 37.8477 6.57552 37.4375 6.13281C37.0339 5.6901 36.4121 5.46875 35.5723 5.46875C34.3874 5.46875 33.554 5.80404 33.0723 6.47461C32.5905 7.14518 32.3496 8.11849 32.3496 9.39453V15H30.7285V4.29688H32.0371L32.2812 5.83984H32.3691C32.597 5.46224 32.8867 5.14648 33.2383 4.89258C33.5898 4.63216 33.9837 4.43685 34.4199 4.30664C34.8561 4.16992 35.3151 4.10156 35.7969 4.10156ZM47.2812 10.3516V8.90625H52.125V10.3516H47.2812ZM61.7344 15H60.0742V0.722656H68.0234V2.1875H61.7344V7.42188H67.6426V8.87695H61.7344V15ZM75.0254 4.10156C75.2402 4.10156 75.4648 4.11458 75.6992 4.14062C75.9336 4.16016 76.1419 4.18945 76.3242 4.22852L76.1191 5.73242C75.9434 5.68685 75.748 5.65104 75.5332 5.625C75.3184 5.59896 75.1165 5.58594 74.9277 5.58594C74.498 5.58594 74.0911 5.67383 73.707 5.84961C73.3294 6.01888 72.9974 6.26628 72.7109 6.5918C72.4245 6.91081 72.1999 7.29818 72.0371 7.75391C71.8743 8.20312 71.793 8.70443 71.793 9.25781V15H70.1621V4.29688H71.5098L71.6855 6.26953H71.7539C71.9753 5.8724 72.2422 5.51107 72.5547 5.18555C72.8672 4.85352 73.2285 4.58984 73.6387 4.39453C74.0553 4.19922 74.5176 4.10156 75.0254 4.10156ZM79.9668 4.29688V15H78.3457V4.29688H79.9668ZM79.1758 0.292969C79.4427 0.292969 79.6706 0.380859 79.8594 0.556641C80.0547 0.725911 80.1523 0.992839 80.1523 1.35742C80.1523 1.71549 80.0547 1.98242 79.8594 2.1582C79.6706 2.33398 79.4427 2.42188 79.1758 2.42188C78.8958 2.42188 78.6615 2.33398 78.4727 2.1582C78.2904 1.98242 78.1992 1.71549 78.1992 1.35742C78.1992 0.992839 78.2904 0.725911 78.4727 0.556641C78.6615 0.380859 78.8958 0.292969 79.1758 0.292969Z" fill="#1F1F1F"/>
</svg>
